<svg xmlns="http://www.w3.org/2000/svg" xmlns:xlink="http://www.w3.org/1999/xlink" width="200" zoomAndPan="magnify" viewBox="0 0 150 149.999998" height="200" preserveAspectRatio="xMidYMid meet" version="1.0"><defs><clipPath id="id1"><path d="M 16.027344 122 L 133.777344 122 L 133.777344 125.105469 L 16.027344 125.105469 Z M 16.027344 122 " clip-rule="nonzero"/></clipPath><clipPath id="id2"><path d="M 16.027344 24.605469 L 133.777344 24.605469 L 133.777344 125.105469 L 16.027344 125.105469 Z M 16.027344 24.605469 " clip-rule="nonzero"/></clipPath><clipPath id="id3"><path d="M 18 24.605469 L 133.777344 24.605469 L 133.777344 125.105469 L 18 125.105469 Z M 18 24.605469 " clip-rule="nonzero"/></clipPath><clipPath id="id4"><path d="M 16.027344 82 L 133.777344 82 L 133.777344 125.105469 L 16.027344 125.105469 Z M 16.027344 82 " clip-rule="nonzero"/></clipPath><clipPath id="id5"><path d="M 113 64 L 133.777344 64 L 133.777344 94 L 113 94 Z M 113 64 " clip-rule="nonzero"/></clipPath><clipPath id="id6"><path d="M 99 67 L 133.777344 67 L 133.777344 125.105469 L 99 125.105469 Z M 99 67 " clip-rule="nonzero"/></clipPath><clipPath id="id7"><path d="M 95 63 L 133.777344 63 L 133.777344 125.105469 L 95 125.105469 Z M 95 63 " clip-rule="nonzero"/></clipPath><clipPath id="id8"><path d="M 56 87 L 94 87 L 94 125.105469 L 56 125.105469 Z M 56 87 " clip-rule="nonzero"/></clipPath><clipPath id="id9"><path d="M 51 83 L 98 83 L 98 125.105469 L 51 125.105469 Z M 51 83 " clip-rule="nonzero"/></clipPath><clipPath id="id10"><path d="M 16.027344 96 L 51 96 L 51 125.105469 L 16.027344 125.105469 Z M 16.027344 96 " clip-rule="nonzero"/></clipPath><clipPath id="id11"><path d="M 16.027344 92 L 55 92 L 55 125.105469 L 16.027344 125.105469 Z M 16.027344 92 " clip-rule="nonzero"/></clipPath></defs><rect x="-15" width="180" fill="#ffffff" y="-15" height="179.999997" fill-opacity="1"/><rect x="-15" width="180" fill="#ffffff" y="-15" height="179.999997" fill-opacity="1"/><rect x="-15" width="180" fill="#ffffff" y="-15" height="179.999997" fill-opacity="1"/><g clip-path="url(#id1)"><path fill="#f2234f" d="M -454.972656 443.457031 L 3732.332031 443.457031 L 3732.332031 122.1875 L -454.972656 122.1875 Z M -454.972656 443.457031 " fill-opacity="1" fill-rule="evenodd"/></g><g clip-path="url(#id2)"><rect x="-15" width="180" fill="#ffffff" y="-15" height="179.999997" fill-opacity="1"/></g><g clip-path="url(#id3)"><path fill="#333333" d="M 133.777344 82.027344 C 133.777344 83.90625 133.6875 85.78125 133.5 87.648438 C 133.316406 89.519531 133.042969 91.375 132.675781 93.21875 C 132.308594 95.0625 131.851562 96.882812 131.304688 98.679688 C 130.757812 100.480469 130.125 102.246094 129.40625 103.980469 C 128.6875 105.71875 127.882812 107.414062 126.996094 109.070312 C 126.109375 110.726562 125.144531 112.335938 124.097656 113.898438 C 123.050781 115.460938 121.933594 116.96875 120.738281 118.421875 C 119.546875 119.875 118.285156 121.265625 116.953125 122.59375 C 115.625 123.921875 114.230469 125.183594 112.777344 126.375 C 111.324219 127.566406 109.816406 128.683594 108.25 129.726562 C 106.6875 130.773438 105.074219 131.738281 103.414062 132.621094 C 101.757812 133.507812 100.058594 134.3125 98.320312 135.03125 C 96.582031 135.75 94.8125 136.382812 93.011719 136.925781 C 91.210938 137.472656 89.390625 137.929688 87.542969 138.292969 C 85.699219 138.660156 83.839844 138.9375 81.96875 139.121094 C 80.097656 139.304688 78.21875 139.398438 76.339844 139.398438 C 74.457031 139.398438 72.582031 139.304688 70.707031 139.121094 C 68.835938 138.9375 66.976562 138.660156 65.132812 138.292969 C 63.289062 137.929688 61.464844 137.472656 59.664062 136.925781 C 57.863281 136.382812 56.097656 135.75 54.359375 135.03125 C 52.621094 134.3125 50.921875 133.507812 49.261719 132.621094 C 47.601562 131.738281 45.992188 130.773438 44.425781 129.726562 C 42.863281 128.683594 41.355469 127.566406 39.898438 126.375 C 38.445312 125.183594 37.054688 123.921875 35.722656 122.59375 C 34.394531 121.265625 33.132812 119.875 31.9375 118.421875 C 30.746094 116.96875 29.625 115.460938 28.582031 113.898438 C 27.535156 112.335938 26.570312 110.726562 25.683594 109.070312 C 24.796875 107.414062 23.992188 105.71875 23.273438 103.980469 C 22.550781 102.246094 21.917969 100.480469 21.375 98.679688 C 20.828125 96.882812 20.371094 95.0625 20.003906 93.21875 C 19.636719 91.375 19.359375 89.519531 19.175781 87.648438 C 18.992188 85.78125 18.898438 83.90625 18.898438 82.027344 C 18.898438 80.148438 18.992188 78.273438 19.175781 76.402344 C 19.359375 74.535156 19.636719 72.675781 20.003906 70.835938 C 20.371094 68.992188 20.828125 67.171875 21.375 65.375 C 21.917969 63.574219 22.550781 61.808594 23.273438 60.074219 C 23.992188 58.335938 24.796875 56.640625 25.683594 54.984375 C 26.570312 53.324219 27.535156 51.714844 28.582031 50.152344 C 29.625 48.589844 30.746094 47.085938 31.9375 45.632812 C 33.132812 44.179688 34.394531 42.789062 35.722656 41.460938 C 37.054688 40.132812 38.445312 38.871094 39.898438 37.679688 C 41.355469 36.488281 42.863281 35.371094 44.425781 34.324219 C 45.992188 33.28125 47.601562 32.316406 49.261719 31.429688 C 50.921875 30.546875 52.621094 29.742188 54.359375 29.023438 C 56.097656 28.304688 57.863281 27.671875 59.664062 27.128906 C 61.464844 26.582031 63.289062 26.125 65.132812 25.757812 C 66.976562 25.394531 68.835938 25.117188 70.707031 24.933594 C 72.582031 24.75 74.457031 24.65625 76.339844 24.65625 C 78.21875 24.65625 80.097656 24.75 81.96875 24.933594 C 83.839844 25.117188 85.699219 25.394531 87.542969 25.757812 C 89.390625 26.125 91.210938 26.582031 93.011719 27.128906 C 94.8125 27.671875 96.582031 28.304688 98.320312 29.023438 C 100.058594 29.742188 101.757812 30.546875 103.414062 31.429688 C 105.074219 32.316406 106.6875 33.28125 108.25 34.324219 C 109.816406 35.371094 111.324219 36.488281 112.777344 37.679688 C 114.230469 38.871094 115.625 40.132812 116.953125 41.460938 C 118.285156 42.789062 119.546875 44.179688 120.738281 45.632812 C 121.933594 47.085938 123.050781 48.589844 124.097656 50.152344 C 125.144531 51.714844 126.109375 53.324219 126.996094 54.984375 C 127.882812 56.640625 128.6875 58.335938 129.40625 60.074219 C 130.125 61.808594 130.757812 63.574219 131.304688 65.375 C 131.851562 67.171875 132.308594 68.992188 132.675781 70.835938 C 133.042969 72.675781 133.316406 74.535156 133.5 76.402344 C 133.6875 78.273438 133.777344 80.148438 133.777344 82.027344 Z M 133.777344 82.027344 " fill-opacity="1" fill-rule="nonzero"/></g><path fill="#ffffff" d="M 116.546875 82.027344 C 116.546875 83.34375 116.480469 84.65625 116.351562 85.964844 C 116.222656 87.273438 116.03125 88.570312 115.773438 89.863281 C 115.515625 91.152344 115.195312 92.425781 114.816406 93.683594 C 114.433594 94.941406 113.988281 96.179688 113.484375 97.394531 C 112.980469 98.609375 112.417969 99.796875 111.796875 100.957031 C 111.179688 102.117188 110.5 103.246094 109.769531 104.339844 C 109.039062 105.433594 108.253906 106.488281 107.417969 107.503906 C 106.585938 108.519531 105.699219 109.492188 104.769531 110.421875 C 103.839844 111.355469 102.863281 112.234375 101.847656 113.070312 C 100.828125 113.90625 99.773438 114.6875 98.675781 115.417969 C 97.582031 116.148438 96.453125 116.824219 95.292969 117.445312 C 94.132812 118.0625 92.941406 118.625 91.726562 119.128906 C 90.507812 119.632812 89.269531 120.074219 88.011719 120.457031 C 86.75 120.839844 85.472656 121.15625 84.183594 121.414062 C 82.890625 121.671875 81.589844 121.863281 80.28125 121.992188 C 78.96875 122.121094 77.65625 122.1875 76.339844 122.1875 C 75.023438 122.1875 73.707031 122.121094 72.398438 121.992188 C 71.085938 121.863281 69.785156 121.671875 68.496094 121.414062 C 67.203125 121.15625 65.925781 120.839844 64.667969 120.457031 C 63.40625 120.074219 62.167969 119.632812 60.953125 119.128906 C 59.734375 118.625 58.546875 118.0625 57.386719 117.445312 C 56.222656 116.824219 55.097656 116.148438 54 115.417969 C 52.90625 114.6875 51.847656 113.90625 50.832031 113.070312 C 49.8125 112.234375 48.839844 111.355469 47.90625 110.421875 C 46.976562 109.492188 46.09375 108.519531 45.257812 107.503906 C 44.421875 106.488281 43.640625 105.433594 42.90625 104.339844 C 42.175781 103.246094 41.5 102.117188 40.878906 100.957031 C 40.257812 99.796875 39.695312 98.609375 39.191406 97.394531 C 38.6875 96.179688 38.246094 94.941406 37.863281 93.683594 C 37.480469 92.425781 37.160156 91.152344 36.902344 89.863281 C 36.648438 88.570312 36.453125 87.273438 36.324219 85.964844 C 36.195312 84.65625 36.132812 83.34375 36.132812 82.027344 C 36.132812 80.710938 36.195312 79.398438 36.324219 78.089844 C 36.453125 76.78125 36.648438 75.480469 36.902344 74.191406 C 37.160156 72.902344 37.480469 71.628906 37.863281 70.371094 C 38.246094 69.109375 38.6875 67.875 39.191406 66.660156 C 39.695312 65.445312 40.257812 64.257812 40.878906 63.097656 C 41.5 61.9375 42.175781 60.808594 42.90625 59.714844 C 43.640625 58.621094 44.421875 57.566406 45.257812 56.550781 C 46.09375 55.535156 46.976562 54.558594 47.90625 53.628906 C 48.839844 52.699219 49.8125 51.816406 50.832031 50.984375 C 51.851562 50.148438 52.90625 49.367188 54 48.636719 C 55.097656 47.90625 56.222656 47.230469 57.386719 46.609375 C 58.546875 45.988281 59.734375 45.429688 60.953125 44.925781 C 62.167969 44.421875 63.40625 43.980469 64.667969 43.597656 C 65.925781 43.214844 67.203125 42.894531 68.496094 42.640625 C 69.785156 42.382812 71.085938 42.191406 72.398438 42.0625 C 73.707031 41.933594 75.023438 41.867188 76.339844 41.867188 C 77.65625 41.867188 78.96875 41.933594 80.28125 42.0625 C 81.589844 42.191406 82.890625 42.382812 84.183594 42.640625 C 85.472656 42.894531 86.75 43.214844 88.011719 43.597656 C 89.269531 43.980469 90.507812 44.421875 91.726562 44.925781 C 92.941406 45.429688 94.132812 45.988281 95.292969 46.609375 C 96.453125 47.230469 97.582031 47.90625 98.675781 48.636719 C 99.773438 49.367188 100.828125 50.148438 101.847656 50.984375 C 102.863281 51.816406 103.839844 52.699219 104.769531 53.628906 C 105.699219 54.558594 106.585938 55.535156 107.417969 56.550781 C 108.253906 57.566406 109.039062 58.621094 109.769531 59.714844 C 110.5 60.808594 111.179688 61.9375 111.796875 63.097656 C 112.417969 64.257812 112.980469 65.445312 113.484375 66.660156 C 113.988281 67.875 114.433594 69.109375 114.816406 70.371094 C 115.195312 71.628906 115.515625 72.902344 115.773438 74.191406 C 116.03125 75.480469 116.222656 76.78125 116.351562 78.089844 C 116.480469 79.398438 116.546875 80.710938 116.546875 82.027344 Z M 116.546875 82.027344 " fill-opacity="1" fill-rule="nonzero"/><path fill="#f2234f" d="M 99.316406 82.027344 C 99.316406 82.777344 99.277344 83.527344 99.203125 84.277344 C 99.128906 85.023438 99.019531 85.765625 98.875 86.503906 C 98.726562 87.242188 98.542969 87.96875 98.324219 88.6875 C 98.105469 89.40625 97.855469 90.113281 97.566406 90.808594 C 97.277344 91.503906 96.957031 92.183594 96.601562 92.84375 C 96.246094 93.507812 95.859375 94.152344 95.441406 94.777344 C 95.023438 95.402344 94.578125 96.003906 94.097656 96.585938 C 93.621094 97.164062 93.117188 97.722656 92.585938 98.253906 C 92.054688 98.785156 91.496094 99.289062 90.914062 99.765625 C 90.332031 100.242188 89.730469 100.691406 89.101562 101.109375 C 88.476562 101.523438 87.832031 101.910156 87.167969 102.265625 C 86.507812 102.621094 85.828125 102.941406 85.132812 103.226562 C 84.4375 103.515625 83.726562 103.769531 83.007812 103.988281 C 82.289062 104.203125 81.558594 104.386719 80.820312 104.535156 C 80.082031 104.679688 79.339844 104.789062 78.589844 104.863281 C 77.84375 104.9375 77.089844 104.976562 76.339844 104.976562 C 75.585938 104.976562 74.835938 104.9375 74.085938 104.863281 C 73.339844 104.789062 72.59375 104.679688 71.855469 104.535156 C 71.117188 104.386719 70.390625 104.203125 69.667969 103.988281 C 68.949219 103.769531 68.242188 103.515625 67.546875 103.226562 C 66.851562 102.941406 66.171875 102.621094 65.507812 102.265625 C 64.84375 101.910156 64.199219 101.523438 63.574219 101.109375 C 62.949219 100.691406 62.34375 100.242188 61.761719 99.765625 C 61.183594 99.289062 60.625 98.785156 60.09375 98.253906 C 59.5625 97.722656 59.054688 97.164062 58.578125 96.585938 C 58.101562 96.003906 57.652344 95.402344 57.234375 94.777344 C 56.816406 94.152344 56.429688 93.507812 56.078125 92.84375 C 55.722656 92.183594 55.398438 91.503906 55.113281 90.808594 C 54.824219 90.113281 54.570312 89.40625 54.351562 88.6875 C 54.132812 87.96875 53.953125 87.242188 53.804688 86.503906 C 53.65625 85.765625 53.546875 85.023438 53.472656 84.277344 C 53.398438 83.527344 53.363281 82.777344 53.363281 82.027344 C 53.363281 81.277344 53.398438 80.527344 53.472656 79.777344 C 53.546875 79.03125 53.65625 78.289062 53.804688 77.550781 C 53.953125 76.8125 54.132812 76.085938 54.351562 75.367188 C 54.570312 74.644531 54.824219 73.941406 55.113281 73.246094 C 55.398438 72.550781 55.722656 71.871094 56.078125 71.210938 C 56.429688 70.546875 56.816406 69.902344 57.234375 69.277344 C 57.652344 68.652344 58.101562 68.050781 58.578125 67.46875 C 59.054688 66.886719 59.5625 66.332031 60.09375 65.800781 C 60.625 65.269531 61.183594 64.765625 61.761719 64.289062 C 62.34375 63.8125 62.949219 63.363281 63.574219 62.945312 C 64.199219 62.527344 64.84375 62.144531 65.507812 61.789062 C 66.171875 61.433594 66.851562 61.113281 67.546875 60.824219 C 68.242188 60.539062 68.949219 60.285156 69.667969 60.066406 C 70.390625 59.847656 71.117188 59.667969 71.855469 59.519531 C 72.59375 59.375 73.339844 59.261719 74.085938 59.191406 C 74.835938 59.117188 75.585938 59.078125 76.339844 59.078125 C 77.089844 59.078125 77.84375 59.117188 78.589844 59.191406 C 79.339844 59.261719 80.082031 59.375 80.820312 59.519531 C 81.558594 59.667969 82.289062 59.847656 83.007812 60.066406 C 83.726562 60.285156 84.4375 60.539062 85.132812 60.824219 C 85.828125 61.113281 86.507812 61.433594 87.167969 61.789062 C 87.832031 62.144531 88.476562 62.527344 89.101562 62.945312 C 89.730469 63.363281 90.332031 63.8125 90.914062 64.289062 C 91.496094 64.765625 92.054688 65.269531 92.585938 65.800781 C 93.117188 66.332031 93.621094 66.886719 94.097656 67.46875 C 94.578125 68.050781 95.023438 68.652344 95.441406 69.277344 C 95.859375 69.902344 96.246094 70.546875 96.601562 71.210938 C 96.957031 71.871094 97.277344 72.550781 97.566406 73.246094 C 97.855469 73.941406 98.105469 74.644531 98.324219 75.367188 C 98.542969 76.085938 98.726562 76.8125 98.875 77.550781 C 99.019531 78.289062 99.128906 79.03125 99.203125 79.777344 C 99.277344 80.527344 99.316406 81.277344 99.316406 82.027344 Z M 99.316406 82.027344 " fill-opacity="1" fill-rule="nonzero"/><path fill="#ffffff" d="M 84.953125 82.027344 C 84.953125 82.59375 84.898438 83.152344 84.789062 83.707031 C 84.679688 84.261719 84.515625 84.796875 84.300781 85.320312 C 84.082031 85.84375 83.816406 86.339844 83.503906 86.808594 C 83.1875 87.277344 82.832031 87.710938 82.429688 88.113281 C 82.03125 88.511719 81.597656 88.867188 81.125 89.183594 C 80.65625 89.496094 80.160156 89.761719 79.636719 89.976562 C 79.113281 90.195312 78.574219 90.355469 78.019531 90.46875 C 77.464844 90.578125 76.90625 90.632812 76.339844 90.632812 C 75.773438 90.632812 75.210938 90.578125 74.65625 90.46875 C 74.101562 90.355469 73.5625 90.195312 73.042969 89.976562 C 72.519531 89.761719 72.023438 89.496094 71.550781 89.183594 C 71.082031 88.867188 70.648438 88.511719 70.246094 88.113281 C 69.847656 87.710938 69.488281 87.277344 69.175781 86.808594 C 68.859375 86.339844 68.59375 85.84375 68.378906 85.320312 C 68.164062 84.796875 68 84.261719 67.886719 83.707031 C 67.777344 83.152344 67.722656 82.59375 67.722656 82.027344 C 67.722656 81.460938 67.777344 80.902344 67.886719 80.347656 C 68 79.792969 68.164062 79.253906 68.378906 78.734375 C 68.59375 78.210938 68.859375 77.714844 69.175781 77.246094 C 69.488281 76.777344 69.847656 76.339844 70.246094 75.941406 C 70.648438 75.542969 71.082031 75.1875 71.550781 74.871094 C 72.023438 74.558594 72.519531 74.292969 73.042969 74.078125 C 73.5625 73.859375 74.101562 73.695312 74.65625 73.585938 C 75.210938 73.476562 75.773438 73.421875 76.339844 73.421875 C 76.90625 73.421875 77.464844 73.476562 78.019531 73.585938 C 78.574219 73.695312 79.113281 73.859375 79.636719 74.078125 C 80.160156 74.292969 80.65625 74.558594 81.125 74.871094 C 81.597656 75.1875 82.03125 75.542969 82.429688 75.941406 C 82.832031 76.339844 83.1875 76.777344 83.503906 77.246094 C 83.816406 77.714844 84.082031 78.210938 84.300781 78.734375 C 84.515625 79.253906 84.679688 79.792969 84.789062 80.347656 C 84.898438 80.902344 84.953125 81.460938 84.953125 82.027344 Z M 84.953125 82.027344 " fill-opacity="1" fill-rule="nonzero"/><g clip-path="url(#id4)"><path fill="#ffffff" d="M 7.414062 82.027344 L 145.265625 82.027344 L 145.265625 139.398438 L 7.414062 139.398438 Z M 7.414062 82.027344 " fill-opacity="1" fill-rule="evenodd"/></g><g clip-path="url(#id5)"><path fill="#ffffff" d="M 113.675781 64.816406 L 145.265625 64.816406 L 145.265625 93.5 L 113.675781 93.5 Z M 113.675781 64.816406 " fill-opacity="1" fill-rule="evenodd"/></g><g clip-path="url(#id6)"><path fill="#777777" d="M 99.316406 67.683594 L 136.648438 67.683594 L 136.648438 127.921875 L 99.316406 127.921875 Z M 99.316406 67.683594 " fill-opacity="1" fill-rule="evenodd"/></g><g clip-path="url(#id7)"><path stroke-linecap="butt" transform="matrix(2.871951, 0, 0, 2.868497, -454.97198, -167.532235)" fill="none" stroke-linejoin="miter" d="M 193.000643 81.999687 L 205.999483 81.999687 L 205.999483 102.999635 L 193.000643 102.999635 Z M 193.000643 81.999687 " stroke="#ffffff" stroke-width="3" stroke-opacity="1" stroke-miterlimit="4"/></g><g clip-path="url(#id8)"><path fill="#9f9f9f" d="M 56.234375 87.765625 L 93.570312 87.765625 L 93.570312 127.921875 L 56.234375 127.921875 Z M 56.234375 87.765625 " fill-opacity="1" fill-rule="evenodd"/></g><g clip-path="url(#id9)"><path stroke-linecap="butt" transform="matrix(2.871951, 0, 0, 2.868497, -454.97198, -167.532235)" fill="none" stroke-linejoin="miter" d="M 177.99968 89.000577 L 190.99988 89.000577 L 190.99988 102.999635 L 177.99968 102.999635 Z M 177.99968 89.000577 " stroke="#ffffff" stroke-width="3" stroke-opacity="1" stroke-miterlimit="4"/></g><g clip-path="url(#id10)"><path fill="#dfdfdf" d="M 13.15625 96.371094 L 50.492188 96.371094 L 50.492188 127.921875 L 13.15625 127.921875 Z M 13.15625 96.371094 " fill-opacity="1" fill-rule="evenodd"/></g><g clip-path="url(#id11)"><path stroke-linecap="butt" transform="matrix(2.871951, 0, 0, 2.868497, -454.97198, -167.532235)" fill="none" stroke-linejoin="miter" d="M 163.000077 92.00057 L 176.000277 92.00057 L 176.000277 102.999635 L 163.000077 102.999635 Z M 163.000077 92.00057 " stroke="#ffffff" stroke-width="3" stroke-opacity="1" stroke-miterlimit="4"/></g></svg>