<svg xmlns="http://www.w3.org/2000/svg" xmlns:xlink="http://www.w3.org/1999/xlink" width="200" zoomAndPan="magnify" viewBox="0 0 150 149.999998" height="200" preserveAspectRatio="xMidYMid meet" version="1.0"><defs><g/></defs><rect x="-15" width="180" fill="#ffffff" y="-15" height="179.999997" fill-opacity="1"/><rect x="-15" width="180" fill="#9d61bc" y="-15" height="179.999997" fill-opacity="1"/><g fill="#ffffff" fill-opacity="1"><g transform="translate(8.472657, 91.874997)"><g><path d="M 12.75 -35.546875 L 21.875 -9.765625 L 30.953125 -35.546875 L 40.578125 -35.546875 L 40.578125 0 L 33.234375 0 L 33.234375 -9.71875 L 33.953125 -26.484375 L 24.359375 0 L 19.34375 0 L 9.765625 -26.46875 L 10.5 -9.71875 L 10.5 0 L 3.171875 0 L 3.171875 -35.546875 Z M 12.75 -35.546875 "/></g></g></g><g fill="#ffffff" fill-opacity="1"><g transform="translate(52.264639, 91.874997)"><g><path d="M 3.171875 0 L 3.171875 -35.546875 L 15.625 -35.546875 C 19.9375 -35.546875 23.207031 -34.71875 25.4375 -33.0625 C 27.664062 -31.414062 28.78125 -29 28.78125 -25.8125 C 28.78125 -24.0625 28.332031 -22.523438 27.4375 -21.203125 C 26.539062 -19.878906 25.296875 -18.90625 23.703125 -18.28125 C 25.523438 -17.832031 26.960938 -16.914062 28.015625 -15.53125 C 29.066406 -14.144531 29.59375 -12.453125 29.59375 -10.453125 C 29.59375 -7.035156 28.5 -4.445312 26.3125 -2.6875 C 24.132812 -0.925781 21.03125 -0.03125 17 0 Z M 10.5 -15.484375 L 10.5 -5.890625 L 16.765625 -5.890625 C 18.492188 -5.890625 19.84375 -6.296875 20.8125 -7.109375 C 21.78125 -7.929688 22.265625 -9.066406 22.265625 -10.515625 C 22.265625 -13.773438 20.582031 -15.429688 17.21875 -15.484375 Z M 10.5 -20.65625 L 15.921875 -20.65625 C 19.609375 -20.71875 21.453125 -22.191406 21.453125 -25.078125 C 21.453125 -26.679688 20.984375 -27.835938 20.046875 -28.546875 C 19.117188 -29.253906 17.644531 -29.609375 15.625 -29.609375 L 10.5 -29.609375 Z M 10.5 -20.65625 "/></g></g></g><g fill="#ffffff" fill-opacity="1"><g transform="translate(84.168831, 91.874997)"><g><path d="M 19.5625 0 L 12.5 0 L 12.5 -27.203125 L 4.078125 -24.578125 L 4.078125 -30.328125 L 18.796875 -35.59375 L 19.5625 -35.59375 Z M 19.5625 0 "/></g></g></g><g fill="#ffffff" fill-opacity="1"><g transform="translate(112.850871, 91.874997)"><g><path d="M 19.5625 0 L 12.5 0 L 12.5 -27.203125 L 4.078125 -24.578125 L 4.078125 -30.328125 L 18.796875 -35.59375 L 19.5625 -35.59375 Z M 19.5625 0 "/></g></g></g></svg>