<svg xmlns="http://www.w3.org/2000/svg" xmlns:xlink="http://www.w3.org/1999/xlink" width="200" zoomAndPan="magnify" viewBox="0 0 150 149.999998" height="200" preserveAspectRatio="xMidYMid meet" version="1.0"><defs><g/></defs><rect x="-15" width="180" fill="#ffffff" y="-15" height="179.999997" fill-opacity="1"/><rect x="-15" width="180" fill="#9d61bc" y="-15" height="179.999997" fill-opacity="1"/><g fill="#ffffff" fill-opacity="1"><g transform="translate(8.472657, 91.874997)"><g><path d="M 12.75 -35.546875 L 21.875 -9.765625 L 30.953125 -35.546875 L 40.578125 -35.546875 L 40.578125 0 L 33.234375 0 L 33.234375 -9.71875 L 33.953125 -26.484375 L 24.359375 0 L 19.34375 0 L 9.765625 -26.46875 L 10.5 -9.71875 L 10.5 0 L 3.171875 0 L 3.171875 -35.546875 Z M 12.75 -35.546875 "/></g></g></g><g fill="#ffffff" fill-opacity="1"><g transform="translate(52.264639, 91.874997)"><g><path d="M 3.171875 0 L 3.171875 -35.546875 L 15.625 -35.546875 C 19.9375 -35.546875 23.207031 -34.71875 25.4375 -33.0625 C 27.664062 -31.414062 28.78125 -29 28.78125 -25.8125 C 28.78125 -24.0625 28.332031 -22.523438 27.4375 -21.203125 C 26.539062 -19.878906 25.296875 -18.90625 23.703125 -18.28125 C 25.523438 -17.832031 26.960938 -16.914062 28.015625 -15.53125 C 29.066406 -14.144531 29.59375 -12.453125 29.59375 -10.453125 C 29.59375 -7.035156 28.5 -4.445312 26.3125 -2.6875 C 24.132812 -0.925781 21.03125 -0.03125 17 0 Z M 10.5 -15.484375 L 10.5 -5.890625 L 16.765625 -5.890625 C 18.492188 -5.890625 19.84375 -6.296875 20.8125 -7.109375 C 21.78125 -7.929688 22.265625 -9.066406 22.265625 -10.515625 C 22.265625 -13.773438 20.582031 -15.429688 17.21875 -15.484375 Z M 10.5 -20.65625 L 15.921875 -20.65625 C 19.609375 -20.71875 21.453125 -22.191406 21.453125 -25.078125 C 21.453125 -26.679688 20.984375 -27.835938 20.046875 -28.546875 C 19.117188 -29.253906 17.644531 -29.609375 15.625 -29.609375 L 10.5 -29.609375 Z M 10.5 -20.65625 "/></g></g></g><g fill="#ffffff" fill-opacity="1"><g transform="translate(84.168831, 91.874997)"><g><path d="M 19.5625 0 L 12.5 0 L 12.5 -27.203125 L 4.078125 -24.578125 L 4.078125 -30.328125 L 18.796875 -35.59375 L 19.5625 -35.59375 Z M 19.5625 0 "/></g></g></g><g fill="#ffffff" fill-opacity="1"><g transform="translate(112.850871, 91.874997)"><g><path d="M 9.59375 -20.90625 L 13.359375 -20.90625 C 15.148438 -20.90625 16.472656 -21.347656 17.328125 -22.234375 C 18.191406 -23.128906 18.625 -24.320312 18.625 -25.8125 C 18.625 -27.238281 18.195312 -28.347656 17.34375 -29.140625 C 16.488281 -29.941406 15.3125 -30.34375 13.8125 -30.34375 C 12.46875 -30.34375 11.335938 -29.972656 10.421875 -29.234375 C 9.515625 -28.492188 9.0625 -27.53125 9.0625 -26.34375 L 2 -26.34375 C 2 -28.195312 2.5 -29.859375 3.5 -31.328125 C 4.5 -32.804688 5.898438 -33.957031 7.703125 -34.78125 C 9.503906 -35.613281 11.484375 -36.03125 13.640625 -36.03125 C 17.398438 -36.03125 20.347656 -35.128906 22.484375 -33.328125 C 24.617188 -31.535156 25.6875 -29.0625 25.6875 -25.90625 C 25.6875 -24.28125 25.1875 -22.78125 24.1875 -21.40625 C 23.195312 -20.039062 21.894531 -18.992188 20.28125 -18.265625 C 22.289062 -17.546875 23.785156 -16.46875 24.765625 -15.03125 C 25.753906 -13.601562 26.25 -11.914062 26.25 -9.96875 C 26.25 -6.800781 25.097656 -4.265625 22.796875 -2.359375 C 20.492188 -0.460938 17.441406 0.484375 13.640625 0.484375 C 10.097656 0.484375 7.195312 -0.445312 4.9375 -2.3125 C 2.6875 -4.1875 1.5625 -6.660156 1.5625 -9.734375 L 8.625 -9.734375 C 8.625 -8.398438 9.125 -7.3125 10.125 -6.46875 C 11.125 -5.625 12.351562 -5.203125 13.8125 -5.203125 C 15.488281 -5.203125 16.800781 -5.644531 17.75 -6.53125 C 18.707031 -7.414062 19.1875 -8.59375 19.1875 -10.0625 C 19.1875 -13.601562 17.234375 -15.375 13.328125 -15.375 L 9.59375 -15.375 Z M 9.59375 -20.90625 "/></g></g></g></svg>