<svg xmlns="http://www.w3.org/2000/svg" xmlns:xlink="http://www.w3.org/1999/xlink" width="200" zoomAndPan="magnify" viewBox="0 0 150 149.999998" height="200" preserveAspectRatio="xMidYMid meet" version="1.0"><defs><g/></defs><rect x="-15" width="180" fill="#ffffff" y="-15" height="179.999997" fill-opacity="1"/><rect x="-15" width="180" fill="#9d61bc" y="-15" height="179.999997" fill-opacity="1"/><g fill="#ffffff" fill-opacity="1"><g transform="translate(22.771871, 91.874997)"><g><path d="M 12.75 -35.5625 L 21.890625 -9.765625 L 30.96875 -35.5625 L 40.59375 -35.5625 L 40.59375 0 L 33.25 0 L 33.25 -9.71875 L 33.984375 -26.5 L 24.375 0 L 19.34375 0 L 9.765625 -26.484375 L 10.5 -9.71875 L 10.5 0 L 3.171875 0 L 3.171875 -35.5625 Z M 12.75 -35.5625 "/></g></g></g><g fill="#ffffff" fill-opacity="1"><g transform="translate(66.594649, 91.874997)"><g><path d="M 3.171875 0 L 3.171875 -35.5625 L 15.640625 -35.5625 C 19.953125 -35.5625 23.222656 -34.734375 25.453125 -33.078125 C 27.679688 -31.429688 28.796875 -29.015625 28.796875 -25.828125 C 28.796875 -24.078125 28.347656 -22.535156 27.453125 -21.203125 C 26.554688 -19.878906 25.3125 -18.910156 23.71875 -18.296875 C 25.539062 -17.835938 26.976562 -16.914062 28.03125 -15.53125 C 29.082031 -14.144531 29.609375 -12.453125 29.609375 -10.453125 C 29.609375 -7.035156 28.515625 -4.445312 26.328125 -2.6875 C 24.148438 -0.925781 21.039062 -0.03125 17 0 Z M 10.5 -15.484375 L 10.5 -5.890625 L 16.78125 -5.890625 C 18.507812 -5.890625 19.859375 -6.300781 20.828125 -7.125 C 21.796875 -7.945312 22.28125 -9.082031 22.28125 -10.53125 C 22.28125 -13.789062 20.59375 -15.441406 17.21875 -15.484375 Z M 10.5 -20.671875 L 15.921875 -20.671875 C 19.617188 -20.734375 21.46875 -22.207031 21.46875 -25.09375 C 21.46875 -26.695312 21 -27.851562 20.0625 -28.5625 C 19.125 -29.269531 17.648438 -29.625 15.640625 -29.625 L 10.5 -29.625 Z M 10.5 -20.671875 "/></g></g></g><g fill="#ffffff" fill-opacity="1"><g transform="translate(98.521283, 91.874997)"><g><path d="M 9.59375 -20.90625 L 13.359375 -20.90625 C 15.148438 -20.90625 16.476562 -21.351562 17.34375 -22.25 C 18.207031 -23.144531 18.640625 -24.335938 18.640625 -25.828125 C 18.640625 -27.253906 18.210938 -28.363281 17.359375 -29.15625 C 16.503906 -29.957031 15.328125 -30.359375 13.828125 -30.359375 C 12.472656 -30.359375 11.335938 -29.988281 10.421875 -29.25 C 9.515625 -28.507812 9.0625 -27.546875 9.0625 -26.359375 L 2 -26.359375 C 2 -28.210938 2.5 -29.875 3.5 -31.34375 C 4.507812 -32.820312 5.910156 -33.976562 7.703125 -34.8125 C 9.503906 -35.644531 11.488281 -36.0625 13.65625 -36.0625 C 17.414062 -36.0625 20.363281 -35.160156 22.5 -33.359375 C 24.632812 -31.554688 25.703125 -29.078125 25.703125 -25.921875 C 25.703125 -24.296875 25.203125 -22.796875 24.203125 -21.421875 C 23.210938 -20.054688 21.910156 -19.003906 20.296875 -18.265625 C 22.304688 -17.554688 23.800781 -16.484375 24.78125 -15.046875 C 25.769531 -13.617188 26.265625 -11.925781 26.265625 -9.96875 C 26.265625 -6.8125 25.109375 -4.28125 22.796875 -2.375 C 20.492188 -0.46875 17.445312 0.484375 13.65625 0.484375 C 10.101562 0.484375 7.195312 -0.445312 4.9375 -2.3125 C 2.6875 -4.1875 1.5625 -6.664062 1.5625 -9.75 L 8.625 -9.75 C 8.625 -8.414062 9.125 -7.320312 10.125 -6.46875 C 11.125 -5.625 12.359375 -5.203125 13.828125 -5.203125 C 15.503906 -5.203125 16.816406 -5.644531 17.765625 -6.53125 C 18.722656 -7.414062 19.203125 -8.59375 19.203125 -10.0625 C 19.203125 -13.613281 17.25 -15.390625 13.34375 -15.390625 L 9.59375 -15.390625 Z M 9.59375 -20.90625 "/></g></g></g></svg>