<svg xmlns="http://www.w3.org/2000/svg" xmlns:xlink="http://www.w3.org/1999/xlink" width="200" zoomAndPan="magnify" viewBox="0 0 150 149.999998" height="200" preserveAspectRatio="xMidYMid meet" version="1.0"><defs><g/></defs><rect x="-15" width="180" fill="#ffffff" y="-15" height="179.999997" fill-opacity="1"/><rect x="-15" width="180" fill="#9d61bc" y="-15" height="179.999997" fill-opacity="1"/><g fill="#ffffff" fill-opacity="1"><g transform="translate(22.766602, 91.874997)"><g><path d="M 12.75 -35.5625 L 21.890625 -9.765625 L 30.96875 -35.5625 L 40.59375 -35.5625 L 40.59375 0 L 33.25 0 L 33.25 -9.71875 L 33.984375 -26.5 L 24.375 0 L 19.34375 0 L 9.765625 -26.484375 L 10.5 -9.71875 L 10.5 0 L 3.171875 0 L 3.171875 -35.5625 Z M 12.75 -35.5625 "/></g></g></g><g fill="#ffffff" fill-opacity="1"><g transform="translate(66.589379, 91.874997)"><g><path d="M 3.171875 0 L 3.171875 -35.5625 L 15.640625 -35.5625 C 19.953125 -35.5625 23.222656 -34.734375 25.453125 -33.078125 C 27.679688 -31.429688 28.796875 -29.015625 28.796875 -25.828125 C 28.796875 -24.078125 28.347656 -22.535156 27.453125 -21.203125 C 26.554688 -19.878906 25.3125 -18.910156 23.71875 -18.296875 C 25.539062 -17.835938 26.976562 -16.914062 28.03125 -15.53125 C 29.082031 -14.144531 29.609375 -12.453125 29.609375 -10.453125 C 29.609375 -7.035156 28.515625 -4.445312 26.328125 -2.6875 C 24.148438 -0.925781 21.039062 -0.03125 17 0 Z M 10.5 -15.484375 L 10.5 -5.890625 L 16.78125 -5.890625 C 18.507812 -5.890625 19.859375 -6.300781 20.828125 -7.125 C 21.796875 -7.945312 22.28125 -9.082031 22.28125 -10.53125 C 22.28125 -13.789062 20.59375 -15.441406 17.21875 -15.484375 Z M 10.5 -20.671875 L 15.921875 -20.671875 C 19.617188 -20.734375 21.46875 -22.207031 21.46875 -25.09375 C 21.46875 -26.695312 21 -27.851562 20.0625 -28.5625 C 19.125 -29.269531 17.648438 -29.625 15.640625 -29.625 L 10.5 -29.625 Z M 10.5 -20.671875 "/></g></g></g><g fill="#ffffff" fill-opacity="1"><g transform="translate(98.516014, 91.874997)"><g><path d="M 23.3125 -13.390625 L 27.34375 -13.390625 L 27.34375 -7.6875 L 23.3125 -7.6875 L 23.3125 0 L 16.25 0 L 16.25 -7.6875 L 1.65625 -7.6875 L 1.34375 -12.140625 L 16.171875 -35.5625 L 23.3125 -35.5625 Z M 8.375 -13.390625 L 16.25 -13.390625 L 16.25 -25.9375 L 15.78125 -25.140625 Z M 8.375 -13.390625 "/></g></g></g></svg>