<svg xmlns="http://www.w3.org/2000/svg" xmlns:xlink="http://www.w3.org/1999/xlink" width="200" zoomAndPan="magnify" viewBox="0 0 150 149.999998" height="200" preserveAspectRatio="xMidYMid meet" version="1.0"><defs><g/></defs><rect x="-15" width="180" fill="#ffffff" y="-15" height="179.999997" fill-opacity="1"/><rect x="-15" width="180" fill="#9d61bc" y="-15" height="179.999997" fill-opacity="1"/><g fill="#ffffff" fill-opacity="1"><g transform="translate(22.813476, 91.875026)"><g><path d="M 12.75 -35.546875 L 21.875 -9.765625 L 30.953125 -35.546875 L 40.578125 -35.546875 L 40.578125 0 L 33.234375 0 L 33.234375 -9.71875 L 33.953125 -26.484375 L 24.359375 0 L 19.34375 0 L 9.765625 -26.46875 L 10.5 -9.71875 L 10.5 0 L 3.171875 0 L 3.171875 -35.546875 Z M 12.75 -35.546875 "/></g></g></g><g fill="#ffffff" fill-opacity="1"><g transform="translate(66.605459, 91.875026)"><g><path d="M 3.171875 0 L 3.171875 -35.546875 L 15.625 -35.546875 C 19.9375 -35.546875 23.207031 -34.71875 25.4375 -33.0625 C 27.664062 -31.414062 28.78125 -29 28.78125 -25.8125 C 28.78125 -24.0625 28.332031 -22.523438 27.4375 -21.203125 C 26.539062 -19.878906 25.296875 -18.90625 23.703125 -18.28125 C 25.523438 -17.832031 26.960938 -16.914062 28.015625 -15.53125 C 29.066406 -14.144531 29.59375 -12.453125 29.59375 -10.453125 C 29.59375 -7.035156 28.5 -4.445312 26.3125 -2.6875 C 24.132812 -0.925781 21.03125 -0.03125 17 0 Z M 10.5 -15.484375 L 10.5 -5.890625 L 16.765625 -5.890625 C 18.492188 -5.890625 19.84375 -6.296875 20.8125 -7.109375 C 21.78125 -7.929688 22.265625 -9.066406 22.265625 -10.515625 C 22.265625 -13.773438 20.582031 -15.429688 17.21875 -15.484375 Z M 10.5 -20.65625 L 15.921875 -20.65625 C 19.609375 -20.71875 21.453125 -22.191406 21.453125 -25.078125 C 21.453125 -26.679688 20.984375 -27.835938 20.046875 -28.546875 C 19.117188 -29.253906 17.644531 -29.609375 15.625 -29.609375 L 10.5 -29.609375 Z M 10.5 -20.65625 "/></g></g></g><g fill="#ffffff" fill-opacity="1"><g transform="translate(98.509651, 91.875026)"><g><path d="M 21.5625 -35.90625 L 21.5625 -30.109375 L 20.875 -30.109375 C 17.6875 -30.054688 15.117188 -29.222656 13.171875 -27.609375 C 11.222656 -26.003906 10.054688 -23.769531 9.671875 -20.90625 C 11.554688 -22.820312 13.941406 -23.78125 16.828125 -23.78125 C 19.910156 -23.78125 22.363281 -22.671875 24.1875 -20.453125 C 26.007812 -18.242188 26.921875 -15.332031 26.921875 -11.71875 C 26.921875 -9.40625 26.421875 -7.3125 25.421875 -5.4375 C 24.421875 -3.570312 23.003906 -2.117188 21.171875 -1.078125 C 19.347656 -0.0351562 17.28125 0.484375 14.96875 0.484375 C 11.21875 0.484375 8.191406 -0.816406 5.890625 -3.421875 C 3.585938 -6.023438 2.4375 -9.5 2.4375 -13.84375 L 2.4375 -16.375 C 2.4375 -20.238281 3.164062 -23.644531 4.625 -26.59375 C 6.082031 -29.550781 8.171875 -31.835938 10.890625 -33.453125 C 13.617188 -35.078125 16.785156 -35.894531 20.390625 -35.90625 Z M 14.671875 -18.109375 C 13.535156 -18.109375 12.503906 -17.8125 11.578125 -17.21875 C 10.648438 -16.625 9.960938 -15.84375 9.515625 -14.875 L 9.515625 -12.71875 C 9.515625 -10.363281 9.976562 -8.519531 10.90625 -7.1875 C 11.84375 -5.863281 13.144531 -5.203125 14.8125 -5.203125 C 16.332031 -5.203125 17.554688 -5.800781 18.484375 -7 C 19.421875 -8.195312 19.890625 -9.742188 19.890625 -11.640625 C 19.890625 -13.578125 19.414062 -15.140625 18.46875 -16.328125 C 17.53125 -17.515625 16.265625 -18.109375 14.671875 -18.109375 Z M 14.671875 -18.109375 "/></g></g></g></svg>