<svg xmlns="http://www.w3.org/2000/svg" xmlns:xlink="http://www.w3.org/1999/xlink" width="200" zoomAndPan="magnify" viewBox="0 0 150 149.999998" height="200" preserveAspectRatio="xMidYMid meet" version="1.0"><defs><g/></defs><rect x="-15" width="180" fill="#ffffff" y="-15" height="179.999997" fill-opacity="1"/><rect x="-15" width="180" fill="#9d61bc" y="-15" height="179.999997" fill-opacity="1"/><g fill="#ffffff" fill-opacity="1"><g transform="translate(22.816406, 91.875026)"><g><path d="M 12.75 -35.546875 L 21.875 -9.765625 L 30.953125 -35.546875 L 40.578125 -35.546875 L 40.578125 0 L 33.234375 0 L 33.234375 -9.71875 L 33.953125 -26.484375 L 24.359375 0 L 19.34375 0 L 9.765625 -26.46875 L 10.5 -9.71875 L 10.5 0 L 3.171875 0 L 3.171875 -35.546875 Z M 12.75 -35.546875 "/></g></g></g><g fill="#ffffff" fill-opacity="1"><g transform="translate(66.608388, 91.875026)"><g><path d="M 3.171875 0 L 3.171875 -35.546875 L 15.625 -35.546875 C 19.9375 -35.546875 23.207031 -34.71875 25.4375 -33.0625 C 27.664062 -31.414062 28.78125 -29 28.78125 -25.8125 C 28.78125 -24.0625 28.332031 -22.523438 27.4375 -21.203125 C 26.539062 -19.878906 25.296875 -18.90625 23.703125 -18.28125 C 25.523438 -17.832031 26.960938 -16.914062 28.015625 -15.53125 C 29.066406 -14.144531 29.59375 -12.453125 29.59375 -10.453125 C 29.59375 -7.035156 28.5 -4.445312 26.3125 -2.6875 C 24.132812 -0.925781 21.03125 -0.03125 17 0 Z M 10.5 -15.484375 L 10.5 -5.890625 L 16.765625 -5.890625 C 18.492188 -5.890625 19.84375 -6.296875 20.8125 -7.109375 C 21.78125 -7.929688 22.265625 -9.066406 22.265625 -10.515625 C 22.265625 -13.773438 20.582031 -15.429688 17.21875 -15.484375 Z M 10.5 -20.65625 L 15.921875 -20.65625 C 19.609375 -20.71875 21.453125 -22.191406 21.453125 -25.078125 C 21.453125 -26.679688 20.984375 -27.835938 20.046875 -28.546875 C 19.117188 -29.253906 17.644531 -29.609375 15.625 -29.609375 L 10.5 -29.609375 Z M 10.5 -20.65625 "/></g></g></g><g fill="#ffffff" fill-opacity="1"><g transform="translate(98.51258, 91.875026)"><g><path d="M 25.59375 -26.09375 C 25.59375 -24.375 25.160156 -22.84375 24.296875 -21.5 C 23.429688 -20.164062 22.242188 -19.101562 20.734375 -18.3125 C 22.453125 -17.476562 23.816406 -16.332031 24.828125 -14.875 C 25.835938 -13.425781 26.34375 -11.710938 26.34375 -9.734375 C 26.34375 -6.578125 25.265625 -4.082031 23.109375 -2.25 C 20.960938 -0.425781 18.039062 0.484375 14.34375 0.484375 C 10.65625 0.484375 7.726562 -0.429688 5.5625 -2.265625 C 3.394531 -4.109375 2.3125 -6.597656 2.3125 -9.734375 C 2.3125 -11.710938 2.816406 -13.429688 3.828125 -14.890625 C 4.835938 -16.359375 6.195312 -17.5 7.90625 -18.3125 C 6.394531 -19.101562 5.210938 -20.164062 4.359375 -21.5 C 3.503906 -22.84375 3.078125 -24.375 3.078125 -26.09375 C 3.078125 -29.125 4.082031 -31.535156 6.09375 -33.328125 C 8.113281 -35.128906 10.859375 -36.03125 14.328125 -36.03125 C 17.773438 -36.03125 20.515625 -35.140625 22.546875 -33.359375 C 24.578125 -31.578125 25.59375 -29.15625 25.59375 -26.09375 Z M 19.265625 -10.25 C 19.265625 -11.800781 18.816406 -13.039062 17.921875 -13.96875 C 17.023438 -14.894531 15.820312 -15.359375 14.3125 -15.359375 C 12.8125 -15.359375 11.613281 -14.894531 10.71875 -13.96875 C 9.820312 -13.050781 9.375 -11.8125 9.375 -10.25 C 9.375 -8.738281 9.8125 -7.519531 10.6875 -6.59375 C 11.570312 -5.664062 12.796875 -5.203125 14.359375 -5.203125 C 15.890625 -5.203125 17.085938 -5.648438 17.953125 -6.546875 C 18.828125 -7.441406 19.265625 -8.675781 19.265625 -10.25 Z M 18.53125 -25.75 C 18.53125 -27.132812 18.160156 -28.242188 17.421875 -29.078125 C 16.691406 -29.921875 15.660156 -30.34375 14.328125 -30.34375 C 13.015625 -30.34375 11.988281 -29.9375 11.25 -29.125 C 10.519531 -28.3125 10.15625 -27.1875 10.15625 -25.75 C 10.15625 -24.34375 10.519531 -23.207031 11.25 -22.34375 C 11.988281 -21.476562 13.023438 -21.046875 14.359375 -21.046875 C 15.691406 -21.046875 16.71875 -21.476562 17.4375 -22.34375 C 18.164062 -23.207031 18.53125 -24.34375 18.53125 -25.75 Z M 18.53125 -25.75 "/></g></g></g></svg>