<svg xmlns="http://www.w3.org/2000/svg" xmlns:xlink="http://www.w3.org/1999/xlink" width="200" zoomAndPan="magnify" viewBox="0 0 150 149.999998" height="200" preserveAspectRatio="xMidYMid meet" version="1.0"><defs><g/></defs><rect x="-15" width="180" fill="#ffffff" y="-15" height="179.999997" fill-opacity="1"/><rect x="-15" width="180" fill="#9d61bc" y="-15" height="179.999997" fill-opacity="1"/><g fill="#ffffff" fill-opacity="1"><g transform="translate(22.813476, 91.875055)"><g><path d="M 12.75 -35.546875 L 21.875 -9.765625 L 30.953125 -35.546875 L 40.578125 -35.546875 L 40.578125 0 L 33.234375 0 L 33.234375 -9.71875 L 33.953125 -26.484375 L 24.359375 0 L 19.34375 0 L 9.765625 -26.46875 L 10.5 -9.71875 L 10.5 0 L 3.171875 0 L 3.171875 -35.546875 Z M 12.75 -35.546875 "/></g></g></g><g fill="#ffffff" fill-opacity="1"><g transform="translate(66.605459, 91.875055)"><g><path d="M 3.171875 0 L 3.171875 -35.546875 L 15.625 -35.546875 C 19.9375 -35.546875 23.207031 -34.71875 25.4375 -33.0625 C 27.664062 -31.414062 28.78125 -29 28.78125 -25.8125 C 28.78125 -24.0625 28.332031 -22.523438 27.4375 -21.203125 C 26.539062 -19.878906 25.296875 -18.90625 23.703125 -18.28125 C 25.523438 -17.832031 26.960938 -16.914062 28.015625 -15.53125 C 29.066406 -14.144531 29.59375 -12.453125 29.59375 -10.453125 C 29.59375 -7.035156 28.5 -4.445312 26.3125 -2.6875 C 24.132812 -0.925781 21.03125 -0.03125 17 0 Z M 10.5 -15.484375 L 10.5 -5.890625 L 16.765625 -5.890625 C 18.492188 -5.890625 19.84375 -6.296875 20.8125 -7.109375 C 21.78125 -7.929688 22.265625 -9.066406 22.265625 -10.515625 C 22.265625 -13.773438 20.582031 -15.429688 17.21875 -15.484375 Z M 10.5 -20.65625 L 15.921875 -20.65625 C 19.609375 -20.71875 21.453125 -22.191406 21.453125 -25.078125 C 21.453125 -26.679688 20.984375 -27.835938 20.046875 -28.546875 C 19.117188 -29.253906 17.644531 -29.609375 15.625 -29.609375 L 10.5 -29.609375 Z M 10.5 -20.65625 "/></g></g></g><g fill="#ffffff" fill-opacity="1"><g transform="translate(98.509651, 91.875055)"><g><path d="M 18.921875 -14.203125 C 17.078125 -12.398438 14.925781 -11.5 12.46875 -11.5 C 9.332031 -11.5 6.816406 -12.578125 4.921875 -14.734375 C 3.035156 -16.890625 2.09375 -19.800781 2.09375 -23.46875 C 2.09375 -25.789062 2.601562 -27.921875 3.625 -29.859375 C 4.644531 -31.804688 6.066406 -33.320312 7.890625 -34.40625 C 9.710938 -35.488281 11.757812 -36.03125 14.03125 -36.03125 C 16.375 -36.03125 18.457031 -35.441406 20.28125 -34.265625 C 22.101562 -33.097656 23.519531 -31.414062 24.53125 -29.21875 C 25.539062 -27.019531 26.054688 -24.507812 26.078125 -21.6875 L 26.078125 -19.0625 C 26.078125 -13.144531 24.601562 -8.492188 21.65625 -5.109375 C 18.707031 -1.722656 14.53125 0.0820312 9.125 0.3125 L 7.390625 0.34375 L 7.390625 -5.546875 L 8.953125 -5.5625 C 15.097656 -5.84375 18.421875 -8.722656 18.921875 -14.203125 Z M 14.203125 -16.890625 C 15.347656 -16.890625 16.332031 -17.179688 17.15625 -17.765625 C 17.976562 -18.359375 18.597656 -19.066406 19.015625 -19.890625 L 19.015625 -22.796875 C 19.015625 -25.191406 18.554688 -27.046875 17.640625 -28.359375 C 16.734375 -29.679688 15.515625 -30.34375 13.984375 -30.34375 C 12.566406 -30.34375 11.398438 -29.695312 10.484375 -28.40625 C 9.578125 -27.113281 9.125 -25.488281 9.125 -23.53125 C 9.125 -21.59375 9.566406 -20 10.453125 -18.75 C 11.347656 -17.507812 12.597656 -16.890625 14.203125 -16.890625 Z M 14.203125 -16.890625 "/></g></g></g></svg>